inDegrees=no
num_controls=7
num_derivatives=13
num_iterations=161
num_multipliers=7
num_parameters=0
num_slacks=7
num_states=26
objective=0.000000
objective_accelerations=0.471838
objective_balance=0.102619
objective_effort=0.356055
objective_height=4.297011
objective_ligament=0.041051
solver_duration=1817.872714
status=Invalid_Number_Detected
success=false
DataType=double
version=3
OpenSimVersion=4.4-2022-07-23-0e9fedc
endheader
time	/jointset/ground_pelvis/pelvis_tilt/value	/jointset/ground_pelvis/pelvis_tx/value	/jointset/ground_pelvis/pelvis_ty/value	/jointset/hip_l/hip_flexion_l/value	/jointset/hip_l/hip_adduction_l/value	/jointset/hip_l/hip_rotation_l/value	/jointset/back/lumbar_extension/value	/jointset/patellofemoral_l/patellar_flexion_l/value	/jointset/knee_l/knee_flexion_l/value	/jointset/knee_l/knee_adduction_l/value	/jointset/knee_l/knee_rotation_l/value	/jointset/ankle_l/ankle_angle_l/value	/jointset/subtalar_l/subtalar_angle_l/value	/jointset/ground_pelvis/pelvis_tilt/speed	/jointset/ground_pelvis/pelvis_tx/speed	/jointset/ground_pelvis/pelvis_ty/speed	/jointset/hip_l/hip_flexion_l/speed	/jointset/hip_l/hip_adduction_l/speed	/jointset/hip_l/hip_rotation_l/speed	/jointset/back/lumbar_extension/speed	/jointset/patellofemoral_l/patellar_flexion_l/speed	/jointset/knee_l/knee_flexion_l/speed	/jointset/knee_l/knee_adduction_l/speed	/jointset/knee_l/knee_rotation_l/speed	/jointset/ankle_l/ankle_angle_l/speed	/jointset/subtalar_l/subtalar_angle_l/speed	/forceset/tau_hip_flexion_l	/forceset/tau_hip_adduction_l	/forceset/tau_hip_rotation_l	/forceset/tau_knee_flexion_l	/forceset/tau_ankle_angle_l	/forceset/tau_subtalar_angle_l	/forceset/tau_lumbar_extension	lambda_cid13_p0	lambda_cid13_p1	lambda_cid13_p2	lambda_cid13_p3	lambda_cid13_p4	lambda_cid13_p5	lambda_cid14_p0	/jointset/ground_pelvis/pelvis_tilt/accel	/jointset/ground_pelvis/pelvis_tx/accel	/jointset/ground_pelvis/pelvis_ty/accel	/jointset/hip_l/hip_flexion_l/accel	/jointset/hip_l/hip_adduction_l/accel	/jointset/hip_l/hip_rotation_l/accel	/jointset/back/lumbar_extension/accel	/jointset/patellofemoral_l/patellar_flexion_l/accel	/jointset/knee_l/knee_flexion_l/accel	/jointset/knee_l/knee_adduction_l/accel	/jointset/knee_l/knee_rotation_l/accel	/jointset/ankle_l/ankle_angle_l/accel	/jointset/subtalar_l/subtalar_angle_l/accel	gamma_cid13_p0	gamma_cid13_p1	gamma_cid13_p2	gamma_cid13_p3	gamma_cid13_p4	gamma_cid13_p5	gamma_cid14_p0
1.5	-0.3672333712359335	-0.02381378941710193	0.7939938370360675	1.084290799302072	-0.3063334504625848	-0.05472657348564709	-0.3266133831978109	0.6516346894345404	0.6516346894343477	-0.1720531717487736	0.1738453655078787	0.1036410351947316	-0.03149536522147786	0.5211237754364694	0.1649092318219613	0.3774857891775071	-1.862323003576329	0.03330189756099109	-0.5798860458922741	0.5800397964691822	-1.651523002496421	-1.651523002493219	0.005566804438447521	-0.002632615973213531	-0.4069657335105806	-0.02817385293786154	-0.207211452679755	0.03066999474703278	-0.02106744913867878	-0.1974554210983478	0.07423051557113283	0.04276894980553177	0.1976857549432126	-14.75844173785715	-19.61648278099058	6.866775040229343	1.775188567745289	-611.7255963002978	-58.91299963699234	-30.40401671165719	0.4145154570324051	0.4084236993547657	-0.2687595910542178	-1.153312007940518	0.4898281618554431	-0.295884599949136	1.388195746379649	-1.017961699522677	-1.017961699522327	-0.05134631399909594	-0.03604143131332247	-0.2519570030498718	0.4615400389963528	1.222446337161134e-07	1.032466057485386e-06	-6.41367506035652e-07	5.684197856735563e-08	1.889322451391073e-07	4.203130778183422e-07	1.884247814983654e-07
1.51	-0.3620017362186889	-0.02214444156879905	0.7977545342007191	1.065611870970032	-0.305976624975542	-0.06054057727739124	-0.3207447936457907	0.6350708038203792	0.6350708038203465	-0.1720011129195212	0.1738188918272935	0.09955914681994128	-0.03175481699665168	0.5251318758095203	0.168938049990784	0.3745802996433891	-1.873197138536614	0.03807510849834167	-0.582854696736421	0.5935935465527246	-1.66101619264448	-1.661016192642602	0.004851846355781187	-0.002647551145902914	-0.4093470322349814	-0.02370254382425274	-0.2006757234502601	0.02956864157701636	-0.02099620069031674	-0.1963492781418353	0.07654960689876222	0.04200049860475573	0.1924478720681539	-13.86387634409829	-19.52245796545254	6.946684078324146	1.540632626334857	-608.4284385760791	-59.18597937090836	-31.30226481400825	0.3832656531820157	0.3967895297065899	-0.3124125829419313	-1.014622203027544	0.4727803574877816	-0.2881797568798093	1.326279531777478	-0.8793417882144481	-0.8793417884138682	-0.08036695417634035	0.01807674201599999	-0.2214619657044013	0.4418780853377914	8.787111924912911e-08	1.144961305065416e-06	-4.858623855677955e-07	9.136860220596496e-08	1.720416998837168e-07	4.400890541240895e-07	1.738557846008208e-07
1.52	-0.3567321585325499	-0.02043546980799713	0.8014839826803596	1.046832169695778	-0.3055717248195693	-0.06638243246365466	-0.3147432036144495	0.618419117481558	0.6184191174817341	-0.1719559629507935	0.1737927280554671	0.09545539632618767	-0.03196916533313188	0.5287123092122228	0.1728340143217669	0.3712360521754507	-1.882477592015121	0.04291683134836947	-0.5854563247898611	0.6066398923337621	-1.669083147423207	-1.669083147422657	0.004185032322032072	-0.002570634228073317	-0.4113381573021363	-0.01915316519888078	-0.1941399942210066	0.02846728840682547	-0.02092495224147287	-0.1952431351854177	0.07886869822635575	0.04123204740378446	0.1872099891929049	-12.97648850014067	-19.42962790781104	7.029584079668851	1.313648483893461	-605.2503280521038	-59.51000035272836	-32.17883533013903	0.3289820629628271	0.3818529317868689	-0.3565111778182913	-0.8345757115845962	0.5035305443908917	-0.2224800418076174	1.286714885878718	-0.7327146256563803	-0.732714625656078	-0.04171750421565103	-0.01767101320960031	-0.1739222716005336	0.4771539413490959	6.694363813006955e-08	1.230241763431988e-06	-4.024802346823397e-07	1.133853861070072e-07	1.642231918721494e-07	4.596002704310096e-07	1.675711443861063e-07
1.53	-0.3514288491585367	-0.01868823699559069	0.8051778505150867	1.027967596012006	-0.3051180275591466	-0.07224847175325602	-0.3086138684230744	0.6016939694397057	0.6016939694399086	-0.1719171192145904	0.173767737666318	0.09133375703803179	-0.03213756745632823	0.5318824227792789	0.1765862672120659	0.3674695867604657	-1.890169249206898	0.04783989583286771	-0.587675120314687	0.6191258296434063	-1.675700327454378	-1.675700327454962	0.003603553321583422	-0.002431541611950779	-0.4129169017835359	-0.01450594749204536	-0.1875510693989426	0.02721628970818275	-0.02088832559864165	-0.1941857213254806	0.08128825774306257	0.04038172352658646	0.1819106508145207	-12.06268615040798	-19.30597366133543	7.107692917403112	1.081025665022536	-602.1299856568253	-59.80418254056184	-33.02991941641609	0.3009639744119791	0.367994681990947	-0.3968700211504013	-0.6962648967859583	0.4891934792176696	-0.2099372633796443	1.214335708623968	-0.5893339545767479	-0.589333954747235	-0.06319833950272341	0.0291982117470402	-0.1389128192070858	0.4615412223810511	6.030256744317981e-08	1.286606508259261e-06	-3.95728738978184e-07	1.221104652868845e-07	1.660437234321439e-07	4.788301792391759e-07	1.700886331468989e-07
